<?xml version="1.0"?>
<svg xmlns="http://www.w3.org/2000/svg" xmlns:xlink="http://www.w3.org/1999/xlink" xmlns:svgjs="http://svgjs.com/svgjs" version="1.1" width="512" height="512" x="0" y="0" viewBox="0 0 24 24" style="enable-background:new 0 0 512 512" xml:space="preserve" class=""><g><g xmlns="http://www.w3.org/2000/svg" fill-rule="evenodd"><path d="m11.5501.81543c-2.89953 0-5.25004 2.3505-5.25004 5.25 0 2.89949 2.35051 5.24997 5.25004 5.24997 2.8995 0 5.25-2.35048 5.25-5.24997 0-2.8995-2.3505-5.25-5.25-5.25z" fill="#6babcb" data-original="#000000" style="" class=""/><path d="m15.7185 12.0901c.4859-.5506 1.1993-.8997 1.9933-.8997h1.9081c1.468 0 2.658 1.1901 2.658 2.6581v6.6782c0 1.4681-1.19 2.6581-2.658 2.6581h-1.9081c-.794 0-1.5074-.3491-1.9933-.8997-.2741-.3105-.2446-.7845.066-1.0586.3105-.2741.7845-.2445 1.0586.066.2133.2417.5229.3923.8687.3923h1.9081c.6396 0 1.158-.5185 1.158-1.1581v-6.6782c0-.6396-.5184-1.1581-1.158-1.1581h-1.9081c-.3458 0-.6554.1506-.8687.3923-.2741.3105-.7481.3401-1.0586.066-.3106-.2741-.3401-.7481-.066-1.0586z" fill="#6babcb" data-original="#000000" style="" class=""/><path d="m17.9347 16.6572c.2929.2929.2929.7677 0 1.0606l-2 2c-.2929.2929-.7678.2929-1.0607 0s-.2929-.7677 0-1.0606l2-2c.2929-.2929.7678-.2929 1.0607 0z" fill="#6babcb" data-original="#000000" style="" class=""/><path d="m17.9347 17.7178c.2929-.2929.2929-.7677 0-1.0606l-2-2c-.2929-.2929-.7678-.2929-1.0607 0s-.2929.7677 0 1.0606l2 2c.2929.2929.7678.2929 1.0607 0z" fill="#6babcb" data-original="#000000" style="" class=""/><path d="m11.1544 17.1875c0-.4142.3357-.75.75-.75h5c.4142 0 .75.3358.75.75s-.3358.75-.75.75h-5c-.4143 0-.75-.3358-.75-.75z" fill="#6babcb" data-original="#000000" style="" class=""/></g><path xmlns="http://www.w3.org/2000/svg" d="m13.7884 13.6219c-3.79513-.4651-7.69907.2249-11.1712 2.07-.54139.2877-.87977.8507-.87977 1.4638v3.6719c0 .9665.7835 1.75 1.75 1.75h10.6855c-.1835-.4908-.1883-1.0298-.0204-1.52-.1197-.0803-.2334-.1733-.3391-.2791-.3757-.3757-.5907-.8511-.6452-1.341h-1.2638c-1.2427 0-2.25004-1.0074-2.25004-2.25s1.00734-2.25 2.25004-2.25h1.2638c.0532-.4789.26-.944.6202-1.3156z" fill="#6babcb" data-original="#000000" style="" class=""/></g></svg>
